<svg xmlns="http://www.w3.org/2000/svg" viewBox="0 0 400 480" fill="none">
  <rect width="400" height="480" fill="#f5f2ec"/>
  <circle cx="200" cy="122" r="44" stroke="#2d4a1e" stroke-width="2.5" fill="#faf6ef"/>
  <circle cx="186" cy="115" r="5" fill="#2d4a1e" opacity="0.8"/>
  <circle cx="214" cy="115" r="5" fill="#2d4a1e" opacity="0.8"/>
  <path d="M187 140 C193 147 207 147 213 140" stroke="#2d4a1e" stroke-width="2" stroke-linecap="round" fill="none"/>
  <line x1="200" y1="166" x2="200" y2="290" stroke="#2d4a1e" stroke-width="3" stroke-linecap="round"/>
  <line x1="163" y1="210" x2="237" y2="206" stroke="#2d4a1e" stroke-width="3" stroke-linecap="round"/>
  <line x1="200" y1="290" x2="180" y2="368" stroke="#2d4a1e" stroke-width="2.8" stroke-linecap="round"/>
  <line x1="200" y1="290" x2="220" y2="368" stroke="#2d4a1e" stroke-width="2.8" stroke-linecap="round"/>
  <rect x="228" y="190" width="52" height="68" rx="4" stroke="#2d4a1e" stroke-width="1.8" fill="none"/>
  <path d="M240 190 L240 185 C240 183 244 181 254 181 C264 181 268 183 268 185 L268 190" stroke="#2d4a1e" stroke-width="1.8" stroke-linecap="round" fill="none"/>
  <line x1="240" y1="210" x2="270" y2="210" stroke="#2d4a1e" stroke-width="1.3" opacity="0.6"/>
  <path d="M238 222 L243 227 L252 216" stroke="#2d4a1e" stroke-width="1.4" stroke-linecap="round" stroke-linejoin="round" opacity="0.8"/>
  <line x1="256" y1="222" x2="270" y2="222" stroke="#2d4a1e" stroke-width="1.3" opacity="0.6"/>
  <path d="M238 237 L243 242 L252 231" stroke="#2d4a1e" stroke-width="1.4" stroke-linecap="round" stroke-linejoin="round" opacity="0.8"/>
  <line x1="256" y1="237" x2="270" y2="237" stroke="#2d4a1e" stroke-width="1.3" opacity="0.6"/>
</svg>