<svg xmlns="http://www.w3.org/2000/svg" viewBox="0 0 400 480" fill="none">
  <rect width="400" height="480" fill="#f5f2ec"/>
  <rect x="155" y="80" width="90" height="85" rx="6" stroke="#2d4a1e" stroke-width="2.5" fill="#faf6ef"/>
  <line x1="200" y1="165" x2="200" y2="290" stroke="#2d4a1e" stroke-width="3" stroke-linecap="round"/>
  <line x1="164" y1="210" x2="236" y2="205" stroke="#2d4a1e" stroke-width="3" stroke-linecap="round"/>
  <line x1="200" y1="290" x2="178" y2="370" stroke="#2d4a1e" stroke-width="2.8" stroke-linecap="round"/>
  <line x1="200" y1="290" x2="222" y2="370" stroke="#2d4a1e" stroke-width="2.8" stroke-linecap="round"/>
  <rect x="172" y="115" width="18" height="14" rx="2" stroke="#2d4a1e" stroke-width="1.8" fill="none"/>
  <rect x="210" y="115" width="18" height="14" rx="2" stroke="#2d4a1e" stroke-width="1.8" fill="none"/>
  <path d="M185 145 C193 152 207 152 215 145" stroke="#2d4a1e" stroke-width="2" stroke-linecap="round" fill="none"/>
  <rect x="174" y="240" width="42" height="30" rx="3" stroke="#2d4a1e" stroke-width="1.8" fill="none"/>
  <path d="M185 240 L185 235 C185 232 188 230 200 230 C212 230 215 232 215 235 L215 240" stroke="#2d4a1e" stroke-width="1.8" stroke-linecap="round" fill="none"/>
</svg>