<svg xmlns="http://www.w3.org/2000/svg" viewBox="0 0 1440 520" fill="none">
  <defs>
    <filter id="blur3"><feGaussianBlur stdDeviation="3"/></filter>
    <filter id="blur6"><feGaussianBlur stdDeviation="6"/></filter>
    <filter id="blur10"><feGaussianBlur stdDeviation="10"/></filter>
    <filter id="blur14"><feGaussianBlur stdDeviation="14"/></filter>
    <!-- Dark vignette at top -->
    <linearGradient id="skyGrad" x1="0" y1="0" x2="0" y2="1">
      <stop offset="0%" stop-color="#1a1a1a"/>
      <stop offset="100%" stop-color="#3a3a3a"/>
    </linearGradient>
  </defs>

  <!-- Background: dark city -->
  <rect width="1440" height="520" fill="#2a2a2a"/>

  <!-- City buildings (blurred, dark grey) -->
  <g filter="url(#blur14)" opacity="0.85">
    <rect x="50" y="80" width="90" height="300" fill="#3d3d3d"/>
    <rect x="160" y="120" width="70" height="260" fill="#444"/>
    <rect x="250" y="60" width="110" height="320" fill="#383838"/>
    <rect x="380" y="100" width="80" height="280" fill="#404040"/>
    <rect x="480" y="40" width="120" height="340" fill="#353535"/>
    <rect x="620" y="90" width="95" height="290" fill="#3c3c3c"/>
    <rect x="740" y="50" width="105" height="330" fill="#383838"/>
    <rect x="870" y="85" width="90" height="295" fill="#424242"/>
    <rect x="980" y="70" width="115" height="310" fill="#363636"/>
    <rect x="1115" y="100" width="85" height="280" fill="#404040"/>
    <rect x="1220" y="55" width="100" height="325" fill="#3a3a3a"/>
    <rect x="1340" y="90" width="90" height="290" fill="#444"/>
  </g>

  <!-- Ground / floor fade -->
  <rect x="0" y="420" width="1440" height="100" fill="#1e1e1e" opacity="0.6"/>

  <!-- === FAR BACKGROUND CROWD (most blurred, tiny) === -->
  <g filter="url(#blur10)" opacity="0.5">
    <!-- Each: circle head + line body + two arm lines + two leg lines -->
    <!-- Row far back, 14 figures scattered -->
    <g fill="white" stroke="white" stroke-linecap="round">
      <circle cx="120" cy="240" r="14"/><line x1="120" y1="254" x2="120" y2="310" stroke-width="6"/><line x1="95" y1="272" x2="145" y2="268" stroke-width="5"/><line x1="120" y1="310" x2="104" y2="360" stroke-width="5"/><line x1="120" y1="310" x2="136" y2="360" stroke-width="5"/>
      <circle cx="230" cy="230" r="13"/><line x1="230" y1="243" x2="230" y2="298" stroke-width="6"/><line x1="207" y1="260" x2="253" y2="256" stroke-width="5"/><line x1="230" y1="298" x2="215" y2="346" stroke-width="5"/><line x1="230" y1="298" x2="245" y2="346" stroke-width="5"/>
      <circle cx="350" cy="248" r="14"/><line x1="350" y1="262" x2="350" y2="316" stroke-width="6"/><line x1="326" y1="280" x2="374" y2="276" stroke-width="5"/><line x1="350" y1="316" x2="335" y2="364" stroke-width="5"/><line x1="350" y1="316" x2="365" y2="364" stroke-width="5"/>
      <circle cx="460" cy="235" r="13"/><line x1="460" y1="248" x2="460" y2="302" stroke-width="6"/><line x1="437" y1="265" x2="483" y2="261" stroke-width="5"/><line x1="460" y1="302" x2="445" y2="350" stroke-width="5"/><line x1="460" y1="302" x2="475" y2="350" stroke-width="5"/>
      <circle cx="580" cy="243" r="14"/><line x1="580" y1="257" x2="580" y2="312" stroke-width="6"/><line x1="556" y1="275" x2="604" y2="271" stroke-width="5"/><line x1="580" y1="312" x2="565" y2="360" stroke-width="5"/><line x1="580" y1="312" x2="595" y2="360" stroke-width="5"/>
      <circle cx="860" cy="238" r="13"/><line x1="860" y1="251" x2="860" y2="305" stroke-width="6"/><line x1="837" y1="268" x2="883" y2="264" stroke-width="5"/><line x1="860" y1="305" x2="845" y2="353" stroke-width="5"/><line x1="860" y1="305" x2="875" y2="353" stroke-width="5"/>
      <circle cx="980" cy="245" r="14"/><line x1="980" y1="259" x2="980" y2="314" stroke-width="6"/><line x1="956" y1="277" x2="1004" y2="273" stroke-width="5"/><line x1="980" y1="314" x2="965" y2="362" stroke-width="5"/><line x1="980" y1="314" x2="995" y2="362" stroke-width="5"/>
      <circle cx="1100" cy="232" r="13"/><line x1="1100" y1="245" x2="1100" y2="299" stroke-width="6"/><line x1="1077" y1="262" x2="1123" y2="258" stroke-width="5"/><line x1="1100" y1="299" x2="1085" y2="347" stroke-width="5"/><line x1="1100" y1="299" x2="1115" y2="347" stroke-width="5"/>
      <circle cx="1240" cy="241" r="14"/><line x1="1240" y1="255" x2="1240" y2="309" stroke-width="6"/><line x1="1216" y1="273" x2="1264" y2="269" stroke-width="5"/><line x1="1240" y1="309" x2="1225" y2="357" stroke-width="5"/><line x1="1240" y1="309" x2="1255" y2="357" stroke-width="5"/>
      <circle cx="1370" cy="236" r="13"/><line x1="1370" y1="249" x2="1370" y2="303" stroke-width="6"/><line x1="1347" y1="266" x2="1393" y2="262" stroke-width="5"/><line x1="1370" y1="303" x2="1355" y2="351" stroke-width="5"/><line x1="1370" y1="303" x2="1385" y2="351" stroke-width="5"/>
    </g>
  </g>

  <!-- === MID CROWD (medium blur) === -->
  <g filter="url(#blur6)" opacity="0.7">
    <g fill="white" stroke="white" stroke-linecap="round">
      <circle cx="90" cy="300" r="20"/><line x1="90" y1="320" x2="90" y2="400" stroke-width="9"/><line x1="58" y1="348" x2="122" y2="342" stroke-width="8"/><line x1="90" y1="400" x2="68" y2="465" stroke-width="7"/><line x1="90" y1="400" x2="112" y2="465" stroke-width="7"/>
      <circle cx="210" cy="288" r="21"/><line x1="210" y1="309" x2="210" y2="390" stroke-width="9"/><line x1="177" y1="338" x2="243" y2="332" stroke-width="8"/><line x1="210" y1="390" x2="188" y2="455" stroke-width="7"/><line x1="210" y1="390" x2="232" y2="455" stroke-width="7"/>
      <circle cx="390" cy="295" r="20"/><line x1="390" y1="315" x2="390" y2="396" stroke-width="9"/><line x1="358" y1="344" x2="422" y2="338" stroke-width="8"/><line x1="390" y1="396" x2="368" y2="461" stroke-width="7"/><line x1="390" y1="396" x2="412" y2="461" stroke-width="7"/>
      <circle cx="530" cy="282" r="21"/><line x1="530" y1="303" x2="530" y2="384" stroke-width="9"/><line x1="497" y1="332" x2="563" y2="326" stroke-width="8"/><line x1="530" y1="384" x2="508" y2="449" stroke-width="7"/><line x1="530" y1="384" x2="552" y2="449" stroke-width="7"/>
      <circle cx="910" cy="290" r="20"/><line x1="910" y1="310" x2="910" y2="391" stroke-width="9"/><line x1="878" y1="339" x2="942" y2="333" stroke-width="8"/><line x1="910" y1="391" x2="888" y2="456" stroke-width="7"/><line x1="910" y1="391" x2="932" y2="456" stroke-width="7"/>
      <circle cx="1050" cy="283" r="21"/><line x1="1050" y1="304" x2="1050" y2="385" stroke-width="9"/><line x1="1017" y1="333" x2="1083" y2="327" stroke-width="8"/><line x1="1050" y1="385" x2="1028" y2="450" stroke-width="7"/><line x1="1050" y1="385" x2="1072" y2="450" stroke-width="7"/>
      <circle cx="1190" cy="292" r="20"/><line x1="1190" y1="312" x2="1190" y2="393" stroke-width="9"/><line x1="1158" y1="341" x2="1222" y2="335" stroke-width="8"/><line x1="1190" y1="393" x2="1168" y2="458" stroke-width="7"/><line x1="1190" y1="393" x2="1212" y2="458" stroke-width="7"/>
      <circle cx="1340" cy="286" r="21"/><line x1="1340" y1="307" x2="1340" y2="388" stroke-width="9"/><line x1="1307" y1="336" x2="1373" y2="330" stroke-width="8"/><line x1="1340" y1="388" x2="1318" y2="453" stroke-width="7"/><line x1="1340" y1="388" x2="1362" y2="453" stroke-width="7"/>
    </g>
  </g>

  <!-- === NEAR CROWD flanking center (light blur) === -->
  <g filter="url(#blur3)" opacity="0.85">
    <g fill="white" stroke="white" stroke-linecap="round">
      <!-- Left side cluster -->
      <circle cx="310" cy="310" r="27"/><line x1="310" y1="337" x2="310" y2="430" stroke-width="12"/><line x1="270" y1="368" x2="350" y2="360" stroke-width="10"/><line x1="310" y1="430" x2="284" y2="500" stroke-width="9"/><line x1="310" y1="430" x2="336" y2="500" stroke-width="9"/>
      <circle cx="460" cy="298" r="26"/><line x1="460" y1="324" x2="460" y2="416" stroke-width="12"/><line x1="421" y1="356" x2="499" y2="348" stroke-width="10"/><line x1="460" y1="416" x2="435" y2="485" stroke-width="9"/><line x1="460" y1="416" x2="485" y2="485" stroke-width="9"/>
      <circle cx="590" cy="315" r="27"/><line x1="590" y1="342" x2="590" y2="435" stroke-width="12"/><line x1="550" y1="373" x2="630" y2="365" stroke-width="10"/><line x1="590" y1="435" x2="564" y2="505" stroke-width="9"/><line x1="590" y1="435" x2="616" y2="505" stroke-width="9"/>
      <!-- Right side cluster -->
      <circle cx="850" cy="305" r="27"/><line x1="850" y1="332" x2="850" y2="425" stroke-width="12"/><line x1="810" y1="363" x2="890" y2="355" stroke-width="10"/><line x1="850" y1="425" x2="824" y2="495" stroke-width="9"/><line x1="850" y1="425" x2="876" y2="495" stroke-width="9"/>
      <circle cx="990" cy="296" r="26"/><line x1="990" y1="322" x2="990" y2="414" stroke-width="12"/><line x1="951" y1="354" x2="1029" y2="346" stroke-width="10"/><line x1="990" y1="414" x2="965" y2="483" stroke-width="9"/><line x1="990" y1="414" x2="1015" y2="483" stroke-width="9"/>
      <circle cx="1130" cy="312" r="27"/><line x1="1130" y1="339" x2="1130" y2="432" stroke-width="12"/><line x1="1090" y1="370" x2="1170" y2="362" stroke-width="10"/><line x1="1130" y1="432" x2="1104" y2="502" stroke-width="9"/><line x1="1130" y1="432" x2="1156" y2="502" stroke-width="9"/>
    </g>
  </g>

  <!-- === CENTER RED FIGURE (sharp, fully in focus) === -->
  <g>
    <!-- Red body fill -->
    <circle cx="720" cy="238" r="46" fill="#dc2626"/>
    <!-- Eyes -->
    <rect x="706" y="228" width="8" height="12" rx="4" fill="#7f1d1d"/>
    <rect x="726" y="228" width="8" height="12" rx="4" fill="#7f1d1d"/>
    <!-- Neck + torso -->
    <rect x="700" y="284" width="40" height="90" rx="8" fill="#dc2626"/>
    <!-- Backpack -->
    <rect x="694" y="290" width="16" height="64" rx="6" fill="#991b1b"/>
    <!-- Arms crossed -->
    <path d="M700 320 Q680 336 695 352" stroke="#dc2626" stroke-width="18" stroke-linecap="round" fill="none"/>
    <path d="M740 320 Q760 336 745 352" stroke="#dc2626" stroke-width="18" stroke-linecap="round" fill="none"/>
    <path d="M700 320 L740 332" stroke="#dc2626" stroke-width="16" stroke-linecap="round"/>
    <path d="M740 320 L700 332" stroke="#991b1b" stroke-width="14" stroke-linecap="round"/>
    <!-- Legs -->
    <line x1="712" y1="374" x2="696" y2="460" stroke="#dc2626" stroke-width="20" stroke-linecap="round"/>
    <line x1="728" y1="374" x2="744" y2="460" stroke="#dc2626" stroke-width="20" stroke-linecap="round"/>
  </g>

  <!-- Subtle ground shadow under red figure -->
  <ellipse cx="720" cy="470" rx="55" ry="10" fill="#000" opacity="0.25"/>
</svg>
