<svg viewBox="0 0 680 420" xmlns="http://www.w3.org/2000/svg" fill="none" style="background:#f8f5f0;">
  <rect width="680" height="420" fill="#f8f5f0"/>

  <!-- Sleeping face (left) -->
  <!-- Head - open curve, chalky gap at top-right (doesn't close) -->
  <path d="M168,215 C165,172 144,148 128,162 C112,176 108,212 116,245 C124,278 152,296 182,290 C212,284 232,263 234,238 C236,213 222,183 200,166 C178,149 168,172 168,215"
        stroke="#2d4a1e" stroke-width="2.3" stroke-linecap="round"/>

  <!-- Closed eyes (sleeping - curved arcs downward) -->
  <path d="M138,200 C143,194 153,193 159,198" stroke="#2d4a1e" stroke-width="2.0" stroke-linecap="round"/>
  <path d="M170,194 C176,188 186,188 191,194" stroke="#2d4a1e" stroke-width="2.1" stroke-linecap="round"/>

  <!-- Small sleeping mouth (slightly turned down) -->
  <path d="M154,232 C160,237 170,237 176,233" stroke="#2d4a1e" stroke-width="1.8" stroke-linecap="round"/>

  <!-- Zzz marks floating up -->
  <path d="M218,158 L233,148" stroke="#2d4a1e" stroke-width="1.5" stroke-linecap="round"/>
  <path d="M233,148 L218,138" stroke="#2d4a1e" stroke-width="1.5" stroke-linecap="round"/>
  <path d="M222,132 L240,118" stroke="#2d4a1e" stroke-width="1.7" stroke-linecap="round"/>
  <path d="M240,118 L222,104" stroke="#2d4a1e" stroke-width="1.7" stroke-linecap="round"/>

  <!-- Arrow (wobbly, pointing right) -->
  <path d="M268,215 C292,212 320,216 352,213" stroke="#2d4a1e" stroke-width="2.1" stroke-linecap="round"/>
  <!-- Arrowhead -->
  <path d="M339,203 C347,210 354,214 347,224" stroke="#2d4a1e" stroke-width="2.1" stroke-linecap="round" stroke-linejoin="round"/>

  <!-- Awake face (right) -->
  <!-- Head - open at top-left (chalky gap) -->
  <path d="M490,200 C490,162 467,142 452,158 C437,174 436,214 446,247 C456,280 482,296 510,292 C538,288 556,268 558,244 C560,220 548,192 528,175 C508,158 490,165 490,200"
        stroke="#2d4a1e" stroke-width="2.3" stroke-linecap="round"/>

  <!-- Open circle eyes (awake) -->
  <path d="M460,202 C460,193 469,187 477,192 C485,197 484,208 476,212 C468,216 460,210 460,202"
        stroke="#2d4a1e" stroke-width="1.9" stroke-linecap="round"/>
  <path d="M497,197 C497,188 506,182 514,187 C522,192 521,203 513,207 C505,211 497,205 497,197"
        stroke="#2d4a1e" stroke-width="1.9" stroke-linecap="round"/>

  <!-- Smile (upturned) -->
  <path d="M462,240 C470,252 482,258 497,257 C512,256 524,248 530,238" stroke="#2d4a1e" stroke-width="2.1" stroke-linecap="round"/>

  <!-- Radiating energy lines from head -->
  <path d="M487,155 L485,136" stroke="#2d4a1e" stroke-width="1.4" stroke-linecap="round"/>
  <path d="M512,162 L527,146" stroke="#2d4a1e" stroke-width="1.4" stroke-linecap="round"/>
  <path d="M538,180 L556,168" stroke="#2d4a1e" stroke-width="1.3" stroke-linecap="round"/>
  <path d="M461,163 L447,149" stroke="#2d4a1e" stroke-width="1.3" stroke-linecap="round"/>
  <path d="M445,185 L428,177" stroke="#2d4a1e" stroke-width="1.3" stroke-linecap="round"/>
  <path d="M547,204 L566,200" stroke="#2d4a1e" stroke-width="1.3" stroke-linecap="round"/>
</svg>
