<svg xmlns="http://www.w3.org/2000/svg" viewBox="0 0 840 560" role="img" aria-label="Tovo objects view">
  <defs>
    <filter id="obj-shadow"><feDropShadow dx="0" dy="6" stdDeviation="20" flood-color="#000" flood-opacity="0.16"/></filter>
    <clipPath id="obj-clip"><rect width="840" height="560" rx="12"/></clipPath>
  </defs>
  <g filter="url(#obj-shadow)"><rect width="840" height="560" rx="12" fill="#faf8f4"/></g>
  <g clip-path="url(#obj-clip)">
    <!-- Title bar -->
    <rect width="840" height="44" fill="#f0ede8"/>
    <line x1="0" y1="44" x2="840" y2="44" stroke="#e5e0d8" stroke-width="1"/>
    <circle cx="20" cy="22" r="6" fill="#ff5f56"/>
    <circle cx="40" cy="22" r="6" fill="#ffbd2e"/>
    <circle cx="60" cy="22" r="6" fill="#27c93f"/>
    <text x="420" y="28" font-family="-apple-system,BlinkMacSystemFont,sans-serif" font-size="13" font-weight="500" fill="#6d6552" text-anchor="middle">Tovo · Objects</text>
    <!-- Sidebar -->
    <rect x="0" y="44" width="180" height="516" fill="#f4f1eb"/>
    <line x1="180" y1="44" x2="180" y2="560" stroke="#e5e0d8" stroke-width="1"/>
    <rect x="16" y="64" width="22" height="22" rx="5" fill="#111"/>
    <circle cx="27" cy="75" r="6.5" fill="white"/>
    <text x="46" y="80" font-family="-apple-system,BlinkMacSystemFont,sans-serif" font-size="13" font-weight="700" fill="#111">Quidity</text>
    <text x="36" y="118" font-family="-apple-system,BlinkMacSystemFont,sans-serif" font-size="12" fill="#6d6552">Brief</text>
    <circle cx="24" cy="114" r="4" fill="#bcae90"/>
    <rect x="8" y="128" width="164" height="30" rx="6" fill="#111" opacity="0.08"/>
    <text x="36" y="148" font-family="-apple-system,BlinkMacSystemFont,sans-serif" font-size="12" font-weight="600" fill="#1c1813">Objects</text>
    <circle cx="24" cy="144" r="4" fill="#22c55e"/>
    <text x="36" y="178" font-family="-apple-system,BlinkMacSystemFont,sans-serif" font-size="12" fill="#6d6552">Capture</text>
    <circle cx="24" cy="174" r="4" fill="#bcae90"/>
    <!-- Main content -->
    <rect x="180" y="44" width="660" height="516" fill="#faf8f4"/>
    <!-- Header -->
    <text x="220" y="88" font-family="-apple-system,BlinkMacSystemFont,sans-serif" font-size="20" font-weight="600" fill="#1c1813" letter-spacing="-0.4">Objects</text>
    <text x="220" y="110" font-family="-apple-system,BlinkMacSystemFont,sans-serif" font-size="13" fill="#978c74">14 objects across 3 categories</text>
    <line x1="220" y1="126" x2="800" y2="126" stroke="#e5e0d8" stroke-width="1"/>
    <!-- Goals category -->
    <text x="220" y="154" font-family="-apple-system,BlinkMacSystemFont,sans-serif" font-size="10" font-weight="600" fill="#978c74" letter-spacing="1.2">GOALS</text>
    <!-- Goal items -->
    <rect x="220" y="164" width="560" height="52" rx="8" fill="white" stroke="#e5e0d8" stroke-width="1"/>
    <rect x="220" y="164" width="3" height="52" rx="1.5" fill="#22c55e"/>
    <text x="238" y="185" font-family="-apple-system,BlinkMacSystemFont,sans-serif" font-size="13" font-weight="500" fill="#1c1813">Side project launch</text>
    <rect x="390" y="172" width="60" height="17" rx="4" fill="#f4f1eb"/>
    <text x="420" y="184" font-family="-apple-system,BlinkMacSystemFont,sans-serif" font-size="10" fill="#978c74" text-anchor="middle">by month end</text>
    <text x="238" y="203" font-family="-apple-system,BlinkMacSystemFont,sans-serif" font-size="12" fill="#6d6552">On track · updated 2 days ago</text>
    <rect x="220" y="224" width="560" height="52" rx="8" fill="white" stroke="#e5e0d8" stroke-width="1"/>
    <rect x="220" y="224" width="3" height="52" rx="1.5" fill="#ef4444"/>
    <text x="238" y="245" font-family="-apple-system,BlinkMacSystemFont,sans-serif" font-size="13" font-weight="500" fill="#1c1813">Read Atomic Habits</text>
    <text x="238" y="263" font-family="-apple-system,BlinkMacSystemFont,sans-serif" font-size="12" fill="#6d6552">Needs attention · chapter 4 overdue</text>
    <!-- Tasks category -->
    <text x="220" y="306" font-family="-apple-system,BlinkMacSystemFont,sans-serif" font-size="10" font-weight="600" fill="#978c74" letter-spacing="1.2">TASKS</text>
    <rect x="220" y="316" width="560" height="52" rx="8" fill="white" stroke="#e5e0d8" stroke-width="1"/>
    <rect x="220" y="316" width="3" height="52" rx="1.5" fill="#f59e0b"/>
    <text x="238" y="337" font-family="-apple-system,BlinkMacSystemFont,sans-serif" font-size="13" font-weight="500" fill="#1c1813">Call dentist</text>
    <text x="238" y="355" font-family="-apple-system,BlinkMacSystemFont,sans-serif" font-size="12" fill="#6d6552">Overdue · rescheduled 3 times</text>
    <rect x="220" y="376" width="560" height="52" rx="8" fill="white" stroke="#e5e0d8" stroke-width="1"/>
    <rect x="220" y="376" width="3" height="52" rx="1.5" fill="#22c55e"/>
    <text x="238" y="397" font-family="-apple-system,BlinkMacSystemFont,sans-serif" font-size="13" font-weight="500" fill="#1c1813">Q3 planning doc</text>
    <text x="238" y="415" font-family="-apple-system,BlinkMacSystemFont,sans-serif" font-size="12" fill="#6d6552">Done · filed yesterday</text>
    <!-- People category -->
    <text x="220" y="458" font-family="-apple-system,BlinkMacSystemFont,sans-serif" font-size="10" font-weight="600" fill="#978c74" letter-spacing="1.2">PEOPLE</text>
    <rect x="220" y="468" width="560" height="52" rx="8" fill="white" stroke="#e5e0d8" stroke-width="1"/>
    <rect x="220" y="468" width="3" height="52" rx="1.5" fill="#6366f1"/>
    <text x="238" y="489" font-family="-apple-system,BlinkMacSystemFont,sans-serif" font-size="13" font-weight="500" fill="#1c1813">Jordan (lawyer)</text>
    <text x="238" y="507" font-family="-apple-system,BlinkMacSystemFont,sans-serif" font-size="12" fill="#6d6552">Follow-up on contract · email pending</text>
    <rect width="840" height="560" rx="12" fill="none" stroke="#e0dbd3" stroke-width="1"/>
  </g>
</svg>