<svg xmlns="http://www.w3.org/2000/svg" viewBox="0 0 340 400" width="340" height="400">
<defs>
  <radialGradient id="g1" cx="50%" cy="80%" r="70%">
    <stop offset="0%" stop-color="#E8400D" stop-opacity="0.4"/>
    <stop offset="60%" stop-color="#FFEED8" stop-opacity="0.2"/>
    <stop offset="100%" stop-color="#D0B2FF" stop-opacity="0"/>
  </radialGradient>
  <filter id="sf1"><feDropShadow dx="0" dy="12" stdDeviation="24" flood-color="#E8400D" flood-opacity="0.18"/></filter>
  <clipPath id="win1"><rect x="20" y="24" width="300" height="350" rx="12"/></clipPath>
</defs>
<rect width="340" height="400" fill="url(#g1)"/>
<g filter="url(#sf1)">
<rect x="20" y="24" width="300" height="350" rx="12" fill="#1A1A1F" stroke="rgba(255,255,255,0.08)" stroke-width="1"/>
<rect x="20" y="24" width="300" height="40" rx="12" fill="#222228"/>
<rect x="20" y="52" width="300" height="12" rx="0" fill="#222228"/>
<circle cx="42" cy="44" r="6" fill="#FF5F57"/>
<circle cx="62" cy="44" r="6" fill="#FEBC2E"/>
<circle cx="82" cy="44" r="6" fill="#28C840"/>
<text x="170" y="48" font-family="-apple-system,BlinkMacSystemFont,sans-serif" font-size="12" fill="rgba(255,255,255,0.5)" text-anchor="middle">Tovo — Morning Brief</text>
<text x="44" y="90" font-family="-apple-system,BlinkMacSystemFont,sans-serif" font-size="11" fill="rgba(255,255,255,0.35)" letter-spacing="1">MON 23 JUN · 7:04AM</text>
<line x1="20" y1="100" x2="320" y2="100" stroke="rgba(255,255,255,0.06)" stroke-width="1"/>
<rect x="30" y="110" width="280" height="56" rx="8" fill="rgba(232,64,13,0.08)" stroke="rgba(232,64,13,0.15)" stroke-width="1"/>
<circle cx="50" cy="138" r="8" fill="none" stroke="#E8400D" stroke-width="1.5"/>
<text x="68" y="132" font-family="-apple-system,BlinkMacSystemFont,sans-serif" font-size="13" font-weight="500" fill="rgba(255,255,255,0.9)">Q3 planning doc</text>
<text x="68" y="149" font-family="-apple-system,BlinkMacSystemFont,sans-serif" font-size="11" fill="rgba(255,255,255,0.35)">Deadline passed · 2 days ago</text>
<rect x="268" y="128" width="34" height="18" rx="4" fill="rgba(232,64,13,0.2)"/>
<text x="285" y="140" font-family="-apple-system,BlinkMacSystemFont,sans-serif" font-size="10" fill="#E8400D" text-anchor="middle">overdue</text>
<rect x="30" y="176" width="280" height="56" rx="8" fill="rgba(255,255,255,0.03)"/>
<circle cx="50" cy="204" r="8" fill="none" stroke="#4A90E8" stroke-width="1.5"/>
<text x="68" y="198" font-family="-apple-system,BlinkMacSystemFont,sans-serif" font-size="13" font-weight="500" fill="rgba(255,255,255,0.9)">Design review</text>
<text x="68" y="215" font-family="-apple-system,BlinkMacSystemFont,sans-serif" font-size="11" fill="rgba(255,255,255,0.35)">Today · 2:00 PM with Felix</text>
<rect x="271" y="194" width="28" height="18" rx="4" fill="rgba(74,144,232,0.15)"/>
<text x="285" y="206" font-family="-apple-system,BlinkMacSystemFont,sans-serif" font-size="10" fill="#4A90E8" text-anchor="middle">today</text>
<rect x="30" y="242" width="280" height="56" rx="8" fill="rgba(255,255,255,0.03)"/>
<circle cx="50" cy="270" r="8" fill="none" stroke="#28C840" stroke-width="1.5"/>
<text x="68" y="264" font-family="-apple-system,BlinkMacSystemFont,sans-serif" font-size="13" font-weight="500" fill="rgba(255,255,255,0.9)">Side project launch</text>
<text x="68" y="281" font-family="-apple-system,BlinkMacSystemFont,sans-serif" font-size="11" fill="rgba(255,255,255,0.35)">Friday · Goal · on track</text>
<rect x="266" y="260" width="36" height="18" rx="4" fill="rgba(40,200,64,0.12)"/>
<text x="284" y="272" font-family="-apple-system,BlinkMacSystemFont,sans-serif" font-size="10" fill="#28C840" text-anchor="middle">on track</text>
<rect x="30" y="308" width="280" height="56" rx="8" fill="rgba(255,255,255,0.03)"/>
<circle cx="50" cy="336" r="8" fill="none" stroke="rgba(255,255,255,0.2)" stroke-width="1.5"/>
<text x="68" y="330" font-family="-apple-system,BlinkMacSystemFont,sans-serif" font-size="13" font-weight="500" fill="rgba(255,255,255,0.7)">Investor call prep</text>
<text x="68" y="347" font-family="-apple-system,BlinkMacSystemFont,sans-serif" font-size="11" fill="rgba(255,255,255,0.3)">Next week · Task</text>
<line x1="20" y1="374" x2="320" y2="374" stroke="rgba(255,255,255,0.05)" stroke-width="1"/>
<text x="44" y="390" font-family="-apple-system,BlinkMacSystemFont,sans-serif" font-size="11" fill="rgba(255,255,255,0.25)">4 items · 2 need attention</text>
</g>
</svg>